<?xml version="1.0" encoding="UTF-8" standalone="no"?>
<svg
   width="210mm"
   height="297mm"
   viewBox="0 0 2100 2970"
   version="2"
   xmlns="http://www.w3.org/2000/svg"
   xmlns:svg="http://www.w3.org/2000/svg">
  <defs>
    <style>
      text {
        font-size:49.389px;
        font-family:'Sofia Sans Extra Condensed';
        fill:#000;
      }
      text.normal {
        writing-mode:lr-tb;
        direction:ltr;
        text-anchor:start;
      }
      text.central {
        text-anchor:middle;
      }
      text.right {
        text-anchor: end;
      }
      text.smol {
        font-size: 40px;
        font-weight: 500;
      }
      text.big {
        font-size: 80px;
      }
      text.stat {
        font-size: 94.5px;
        text-anchor:middle;
        font-family: monospace;
      }
      .bleed {
          display: none;
      }
      @media only screen {
        .bleed {
          display: unset;
        }
      }
      .skill0 > rect:nth-child(1) {
        fill: #000;
      }
      .skill1 > rect:nth-child(1) {
        fill: #000;
      }
      .skill1 > rect:nth-child(2) {
        fill: #000;
      }
      .skill2 > rect:nth-child(1) {
        fill: #000;
      }
      .skill2 > rect:nth-child(2) {
        fill: #000;
      }
      .skill2 > rect:nth-child(3) {
        fill: #000;
      }
    </style>
  </defs>
  <rect class="bleed" x="0" y="0" width="100%" height="100%" fill="white" stroke="black" />
  <rect class="bleed" x="100" y="100" width="1900" height="2770" fill="none" stroke="#888" />
  <!--region Статы-->
  <text class="central" x="1050" y="446">Ближний бой</text>
  <rect width="200" height="120" x="950" y="450" fill="none" stroke="#000" />
  <text   id="sbSHtHV" class="stat" x="1050" y="546"></text>
  <circle id="sbSHtHu1" r="15" cx="975"  cy="590" stroke="#000" fill="none" />
  <circle id="sbSHtHu2" r="15" cx="1025" cy="590" stroke="#000" fill="none" />
  <circle id="sbSHtHu3" r="15" cx="1075" cy="590" stroke="#000" fill="none" />
  <circle id="sbSHtHu4" r="15" cx="1125" cy="590" stroke="#000" fill="none" />
  <text class="central" x="1050" y="646">Баллистика</text>
  <rect width="200" height="120" x="950" y="650" fill="none" stroke="#000" />
  <text   id="sbSRCV" class="stat" x="1050" y="746"></text>
  <circle id="sbSRCu1" r="15" cx="975"  cy="790" stroke="#000" fill="none" />
  <circle id="sbSRCu2" r="15" cx="1025" cy="790" stroke="#000" fill="none" />
  <circle id="sbSRCu3" r="15" cx="1075" cy="790" stroke="#000" fill="none" />
  <circle id="sbSRCu4" r="15" cx="1125" cy="790" stroke="#000" fill="none" />
  <text class="central" x="1050" y="846">Сила</text>
  <rect width="200" height="120" x="950" y="850" fill="none" stroke="#000" />
  <text   id="sbSStrV" class="stat" x="1050" y="946"></text>
  <circle id="sbSStru1" r="15" cx="975"  cy="990" stroke="#000" fill="none" />
  <circle id="sbSStru2" r="15" cx="1025" cy="990" stroke="#000" fill="none" />
  <circle id="sbSStru3" r="15" cx="1075" cy="990" stroke="#000" fill="none" />
  <circle id="sbSStru4" r="15" cx="1125" cy="990" stroke="#000" fill="none" />
  <text class="central" x="1050" y="1046">Выносливость</text>
  <rect width="200" height="120" x="950"  y="1050" fill="none" stroke="#000" />
  <text   id="sbSConV" class="stat" x="1050" y="1146"></text>
  <circle id="sbSConu1" r="15" cx="975"  cy="1190" stroke="#000" fill="none" />
  <circle id="sbSConu2" r="15" cx="1025" cy="1190" stroke="#000" fill="none" />
  <circle id="sbSConu3" r="15" cx="1075" cy="1190" stroke="#000" fill="none" />
  <circle id="sbSConu4" r="15" cx="1125" cy="1190" stroke="#000" fill="none" />
  <text class="central" x="1050" y="1246">Ловкость</text>
  <rect width="200" height="120" x="950"  y="1250" fill="none" stroke="#000" />
  <text   id="sbSDexV" class="stat" x="1050" y="1346"></text>
  <circle id="sbSDexu1" r="15" cx="975"  cy="1390" stroke="#000" fill="none" />
  <circle id="sbSDexu2" r="15" cx="1025" cy="1390" stroke="#000" fill="none" />
  <circle id="sbSDexu3" r="15" cx="1075" cy="1390" stroke="#000" fill="none" />
  <circle id="sbSDexu4" r="15" cx="1125" cy="1390" stroke="#000" fill="none" />
  <text class="central" x="1050" y="1446">Интеллект</text>
  <rect width="200" height="120" x="950"  y="1450" fill="none" stroke="#000" />
  <text   id="sbSIntV" class="stat" x="1050" y="1546"></text>
  <circle id="sbSIntu1" r="15" cx="975"  cy="1590" stroke="#000" fill="none" />
  <circle id="sbSIntu2" r="15" cx="1025" cy="1590" stroke="#000" fill="none" />
  <circle id="sbSIntu3" r="15" cx="1075" cy="1590" stroke="#000" fill="none" />
  <circle id="sbSIntu4" r="15" cx="1125" cy="1590" stroke="#000" fill="none" />
  <text class="central" x="1050" y="1646">Восприятие</text>
  <rect width="200" height="120" x="950"  y="1650" fill="none" stroke="#000" />
  <text   id="sbSPerV" class="stat" x="1050" y="1746"></text>
  <circle id="sbSPeru1" r="15" cx="975"  cy="1790" stroke="#000" fill="none" />
  <circle id="sbSPeru2" r="15" cx="1025" cy="1790" stroke="#000" fill="none" />
  <circle id="sbSPeru3" r="15" cx="1075" cy="1790" stroke="#000" fill="none" />
  <circle id="sbSPeru4" r="15" cx="1125" cy="1790" stroke="#000" fill="none" />
  <text class="central" x="1050" y="1846">Сила воли</text>
  <rect width="200" height="120" x="950"  y="1850" fill="none" stroke="#000" />
  <text   id="sbSWilV" class="stat" x="1050" y="1946"></text>
  <circle id="sbSWilu1" r="15" cx="975"  cy="1990" stroke="#000" fill="none" />
  <circle id="sbSWilu2" r="15" cx="1025" cy="1990" stroke="#000" fill="none" />
  <circle id="sbSWilu3" r="15" cx="1075" cy="1990" stroke="#000" fill="none" />
  <circle id="sbSWilu4" r="15" cx="1125" cy="1990" stroke="#000" fill="none" />
  <text class="central" x="1050" y="2046">Товарищество</text>
  <rect width="200" height="120" x="950"  y="2050" fill="none" stroke="#000" />
  <text   id="sbSFelV" class="stat" x="1050" y="2146"></text>
  <circle id="sbSFelu1" r="15" cx="975"  cy="2190" stroke="#000" fill="none" />
  <circle id="sbSFelu2" r="15" cx="1025" cy="2190" stroke="#000" fill="none" />
  <circle id="sbSFelu3" r="15" cx="1075" cy="2190" stroke="#000" fill="none" />
  <circle id="sbSFelu4" r="15" cx="1125" cy="2190" stroke="#000" fill="none" />
  <!--endregion-->
  <!--region Пушки-->
  <text x="100" y="446" class="normal">Оружие</text>
  <text x="930" y="446" class="right smol">Класс</text>
  <text x="100" y="496" class="normal smol">Урон</text>
  <text x="515" y="496" class="central smol">Бронепробитие</text>
  <text x="930" y="496" class="right smol">Дистанция</text>
  <text x="100" y="546" class="normal smol">Скорострельность</text>
  <text x="515" y="546" class="central smol">Обойма</text>
  <text x="930" y="546" class="right smol">Перезарядка</text>
  <!-- Пример чоппы -->
  <g id="sbChopp">
    <text x="100" y="896" class="normal"></text>
    <text x="930" y="896" class="right"></text>
    <text x="100" y="946" class="normal"></text>
    <text x="515" y="946" class="central"></text>
    <text x="930" y="946" class="right"></text>
    <text x="100" y="996" class="normal"></text>
  </g>
  <!-- Пример шотты -->
  <g id="sbShot">
    <text x="100" y="596" class="normal"></text>
    <text x="930" y="596" class="right"></text>
    <text x="100" y="646" class="normal"></text>
    <text x="515" y="646" class="central"></text>
    <text x="930" y="646" class="right"></text>
    <text x="100" y="696" class="normal"></text>
    <text x="515" y="696" class="central"></text>
    <text x="930" y="696" class="right"></text>
    <text x="100" y="746" class="normal"></text>
  </g>
  <g id="sbWeaponLines" stroke="#000">
    <line x1="100" x2="940" y1="600" y2="600" />
    <line x1="100" x2="940" y1="650" y2="650" />
    <line x1="100" x2="940" y1="700" y2="700" />
    <line x1="100" x2="940" y1="750" y2="750" />
    <line x1="100" x2="940" y1="800" y2="800" />
    <line x1="100" x2="940" y1="850" y2="850" />
    <line x1="100" x2="940" y1="900" y2="900" />
    <line x1="100" x2="940" y1="950" y2="950" />
    <line x1="100" x2="940" y1="1000" y2="1000" />
    <line x1="100" x2="940" y1="1050" y2="1050" />
    <line x1="100" x2="940" y1="1100" y2="1100" />
    <line x1="100" x2="940" y1="1150" y2="1150" />
    <line x1="100" x2="940" y1="1200" y2="1200" />
    <line x1="100" x2="940" y1="1250" y2="1250" />
    <line x1="100" x2="940" y1="1300" y2="1300" />
    <line x1="100" x2="940" y1="1350" y2="1350" />
    <line x1="100" x2="940" y1="1400" y2="1400" />
    <line x1="100" x2="940" y1="1450" y2="1450" />
    <line x1="100" x2="940" y1="1500" y2="1500" />
    <line x1="100" x2="940" y1="1550" y2="1550" />
    <line x1="100" x2="940" y1="1600" y2="1600" />
    <line x1="100" x2="940" y1="1650" y2="1650" />
    <line x1="100" x2="940" y1="1700" y2="1700" />
    <line x1="100" x2="940" y1="1750" y2="1750" />
    <line x1="100" x2="940" y1="1800" y2="1800" />
    <line x1="100" x2="940" y1="1850" y2="1850" />
    <line x1="100" x2="940" y1="1900" y2="1900" />
    <line x1="100" x2="940" y1="1950" y2="1950" />
    <line x1="100" x2="940" y1="2000" y2="2000" />
    <line x1="100" x2="940" y1="2050" y2="2050" />
    <line x1="100" x2="940" y1="2100" y2="2100" />
    <line x1="100" x2="940" y1="2150" y2="2150" />
    <line x1="100" x2="940" y1="2200" y2="2200" />
  </g>
  <!--endregion-->
  <!--region Псих-->
  <text x="1160" y="446" class="normal">Психосилы</text>
  <text x="1700" y="446" class="right smol">Дист</text>
  <text x="1800" y="446" class="right smol">Порог</text>
  <text x="1900" y="446" class="right smol">Подд</text>
  <text x="2000" y="446" class="right smol">Каст</text>
  <g id="sbPsychoLines" stroke="#000">
    <line x1="1160" x2="2000" y1="500" y2="500" />
    <line x1="1160" x2="2000" y1="550" y2="550" />
    <line x1="1160" x2="2000" y1="600" y2="600" />
    <line x1="1160" x2="2000" y1="650" y2="650" />
    <line x1="1160" x2="2000" y1="700" y2="700" />
    <line x1="1160" x2="2000" y1="750" y2="750" />
    <line x1="1160" x2="2000" y1="800" y2="800" />
    <line x1="1160" x2="2000" y1="850" y2="850" />
    <line x1="1160" x2="2000" y1="900" y2="900" />
    <line x1="1160" x2="2000" y1="950" y2="950" />
    <line x1="1160" x2="2000" y1="1000" y2="1000" />
    <line x1="1160" x2="2000" y1="1050" y2="1050" />
    <line x1="1160" x2="2000" y1="1100" y2="1100" />
    <line x1="1160" x2="2000" y1="1150" y2="1150" />
    <line x1="1160" x2="2000" y1="1200" y2="1200" />
    <line x1="1160" x2="2000" y1="1250" y2="1250" />
    <line x1="1160" x2="2000" y1="1300" y2="1300" />
    <line x1="1160" x2="2000" y1="1350" y2="1350" />
    <line x1="1160" x2="2000" y1="1400" y2="1400" />
    <line x1="1160" x2="2000" y1="1450" y2="1450" />
    <line x1="1160" x2="2000" y1="1500" y2="1500" />
    <line x1="1160" x2="2000" y1="1550" y2="1550" />
    <line x1="1160" x2="2000" y1="1600" y2="1600" />
    <line x1="1160" x2="2000" y1="1650" y2="1650" />
    <line x1="1160" x2="2000" y1="1700" y2="1700" />
    <line x1="1160" x2="2000" y1="1750" y2="1750" />
    <line x1="1160" x2="2000" y1="1800" y2="1800" />
    <line x1="1160" x2="2000" y1="1850" y2="1850" />
    <line x1="1160" x2="2000" y1="1900" y2="1900" />
    <line x1="1160" x2="2000" y1="1950" y2="1950" />
    <line x1="1160" x2="2000" y1="2000" y2="2000" />
    <line x1="1160" x2="2000" y1="2050" y2="2050" />
    <line x1="1160" x2="2000" y1="2100" y2="2100" />
    <line x1="1160" x2="2000" y1="2150" y2="2150" />
    <line x1="1160" x2="2000" y1="2200" y2="2200" />
  </g>
  <!--endregion-->
  <!--region Броня-->
  <text x="420" y="2250" class="central">Броня</text>
  <g fill="none" stroke="#000">
    <rect x="320" y="2260" width="200" height="190" />
    <rect x="320" y="2470" width="200" height="190" />
    
    <rect x="100" y="2470" width="200" height="190" />
    <rect x="540" y="2470" width="200" height="190" />
    
    <rect x="210" y="2680" width="200" height="190" />
    <rect x="430" y="2680" width="200" height="190" />
  </g>
  <text x="420" y="2310" class="central">Голова</text>
  <text x="420" y="2520" class="central">Тело</text>
  
  <text x="200" y="2520" class="central">П. рука</text>
  <text x="640" y="2520" class="central">Л. рука</text>
  
  <text x="310" y="2730" class="central">П. нога</text>
  <text x="530" y="2730" class="central">Л. нога</text>

  <g opacity="0.5">
    <text x="330" y="2310" class="normal smol">01</text>
    <text x="510" y="2310" class="right smol">10</text>
    <text x="330" y="2520" class="normal smol">31</text>
    <text x="510" y="2520" class="right smol">70</text>
    <text x="110" y="2520" class="normal smol">11</text>
    <text x="290" y="2520" class="right smol">20</text>
    <text x="550" y="2520" class="normal smol">21</text>
    <text x="730" y="2520" class="right smol">30</text>
    <text x="220" y="2730" class="normal smol">71</text>
    <text x="400" y="2730" class="right smol">85</text>
    <text x="440" y="2730" class="normal smol">86</text>
    <text x="620" y="2730" class="right smol">00</text>
  </g>
  <text x="330" y="2440" class="normal smol">Тип</text>
  <text x="330" y="2650" class="normal smol">Тип</text>
  <text x="110" y="2650" class="normal smol">Тип</text>
  <text x="550" y="2650" class="normal smol">Тип</text>
  <text x="220" y="2860" class="normal smol">Тип</text>
  <text x="440" y="2860" class="normal smol">Тип</text>
  <!--endregion-->
  <!--region Жинзь-->
  <text x="800" y="2250" class="normal">Раны</text>
  <text x="1000" y="2350" class="normal big">/ <tspan id="sbWounds"></tspan></text>
  <line x1="760" x2="1000" y1="2354" y2="2354" stroke="black" />
  <text x="800" y="2400" class="normal">Критический урон</text>
  <line x1="760" x2="1100" y1="2454" y2="2454" stroke="black" />
  <text x="800" y="2500" class="normal">Очки судьбы</text>
  <text x="1000" y="2600" class="normal big">/ <tspan id="sbFate"></tspan></text>
  <line x1="760" x2="1000" y1="2604" y2="2604" stroke="black" />
  <text x="800" y="2650" class="normal">Усталость</text>
  <line x1="760" x2="1100" y1="2700" y2="2700" stroke="black" />
  <!--endregion-->
  <!--region Мутации-->
  <text x="1250" y="2250" class="normal">Мутации и аугментации</text>
  <g stroke="#000">
    <line x1="1150" x2="2000" y1="2320" y2="2320" />
    <line x1="1150" x2="2000" y1="2370" y2="2370" />
    <line x1="1150" x2="2000" y1="2420" y2="2420" />
    <line x1="1150" x2="2000" y1="2470" y2="2470" />
    <line x1="1150" x2="2000" y1="2520" y2="2520" />
    <line x1="1150" x2="2000" y1="2570" y2="2570" />
    <line x1="1150" x2="2000" y1="2620" y2="2620" />
    <line x1="1150" x2="2000" y1="2670" y2="2670" />
    <line x1="1150" x2="2000" y1="2720" y2="2720" />
    <line x1="1150" x2="2000" y1="2770" y2="2770" />
    <line x1="1150" x2="2000" y1="2820" y2="2820" />
    <line x1="1150" x2="2000" y1="2870" y2="2870" />
  </g>
  <!--endregion-->
  <!--region Безумие-->
  <text x="100" y="137" class="normal">Безумие</text>
  <text x="500" y="137" class="normal right" id="sbMadness"></text>
  <text x="100" y="187" class="normal smol">Расстройства</text>
  <text x="1040" y="187" class="right smol">Степень</text>
  <g stroke="#000">
    <line x1="540" x2="1040" y1="145" y2="145" />
    <line x1="400" x2="500" y1="145" y2="145" />
    <line x1="100" x2="1040" y1="246" y2="246" />
    <line x1="100" x2="1040" y1="296" y2="296" />
    <line x1="100" x2="1040" y1="346" y2="346" />
    <line x1="100" x2="1040" y1="396" y2="396" />
  </g>
  <!--endregion-->
  <!--region Порча-->
  <text x="1060" y="137" class="normal">Порча</text>
  <text x="1440" y="137" class="normal right" id="sbCorrupt"></text>
  <text x="1060" y="187" class="normal smol">Осквернения</text>
  <g stroke="#000">
    <line x1="1500" x2="2000" y1="145" y2="145" />
    <line x1="1340" x2="1440" y1="145" y2="145" />
    <line x1="1060" x2="1520" y1="246" y2="246" />
    <line x1="1060" x2="1520" y1="296" y2="296" />
    <line x1="1060" x2="1520" y1="346" y2="346" />
    <line x1="1060" x2="1520" y1="396" y2="396" />
    <line x1="1540" x2="2000" y1="196" y2="196" />
    <line x1="1540" x2="2000" y1="246" y2="246" />
    <line x1="1540" x2="2000" y1="296" y2="296" />
    <line x1="1540" x2="2000" y1="346" y2="346" />
    <line x1="1540" x2="2000" y1="396" y2="396" />
  </g>
  <!--endregion-->
</svg>
